<?xml version="1.0" standalone="no"?>
<!DOCTYPE svg PUBLIC "-//W3C//DTD SVG 20010904//EN"
 "http://www.w3.org/TR/2001/REC-SVG-20010904/DTD/svg10.dtd">
<svg version="1.0" xmlns="http://www.w3.org/2000/svg"
 width="2802.000000pt" height="2418.000000pt" viewBox="0 0 2802.000000 2418.000000"
 preserveAspectRatio="xMidYMid meet">
<metadata>
Created by potrace 1.16, written by Peter Selinger 2001-2019
</metadata>
<g transform="translate(0.000000,2418.000000) scale(0.100000,-0.100000)"
fill="#000000" stroke="none">
<path d="M13560 23364 c-30 -2 -136 -8 -235 -14 -3827 -221 -7340 -2185 -9390
-5250 -1079 -1612 -1686 -3422 -1795 -5349 -13 -238 -13 -894 0 -1132 59
-1037 256 -2018 597 -2973 920 -2578 2830 -4768 5353 -6139 1481 -804 3130
-1301 4835 -1456 449 -41 569 -46 1185 -46 616 0 744 5 1195 46 3687 333 7016
2266 8990 5219 1003 1501 1604 3185 1764 4945 32 351 41 563 41 970 0 407 -9
619 -41 970 -160 1759 -763 3448 -1764 4945 -836 1250 -1920 2328 -3200 3185
-1593 1066 -3432 1747 -5370 1989 -204 26 -531 57 -800 77 -140 10 -1244 21
-1365 13z m1151 -114 c2014 -100 3890 -640 5592 -1609 2856 -1627 4862 -4327
5481 -7376 143 -708 206 -1341 206 -2080 0 -381 -10 -611 -41 -950 -200 -2189
-1089 -4261 -2568 -5978 -2044 -2374 -5025 -3858 -8261 -4112 -281 -22 -657
-37 -835 -33 l-159 3 -28 135 c-147 727 -245 1520 -289 2350 -25 456 -14 1305
22 1765 30 383 34 411 95 551 128 296 342 841 479 1219 32 88 66 171 75 185
33 49 329 548 444 749 331 575 597 1101 700 1381 l28 75 163 113 c453 314
1342 985 2005 1516 l185 148 60 -6 c33 -4 141 -9 240 -13 728 -25 1444 211
2005 661 423 339 765 832 939 1354 189 566 210 1197 57 1753 -50 183 -96 301
-190 494 -296 603 -799 1088 -1470 1416 -54 27 -104 53 -110 58 -22 18 -561
153 -689 172 -316 47 -741 15 -1122 -85 -1330 -351 -2210 -1478 -2262 -2896
l-6 -175 -241 -104 c-267 -116 -2076 -901 -2144 -932 l-44 -19 84 91 c828 903
1339 1844 1420 2612 l12 118 45 52 c64 75 166 234 206 321 141 309 148 639 20
954 -31 77 -43 96 -113 163 -213 206 -492 281 -778 209 -141 -36 -349 -151
-475 -265 l-35 -32 -190 -6 c-904 -32 -1646 -271 -2009 -647 l-69 -72 -226 55
c-347 86 -590 131 -890 164 -195 21 -656 24 -810 5 -688 -86 -1120 -384 -1304
-900 -38 -108 -66 -258 -66 -360 l0 -90 -63 -30 c-120 -56 -304 -216 -387
-337 -43 -62 -104 -196 -125 -270 -25 -93 -31 -301 -11 -415 52 -294 235 -641
455 -860 150 -149 304 -248 481 -310 36 -13 68 -26 73 -30 4 -3 -27 -67 -69
-141 -418 -736 -910 -1775 -1274 -2694 -37 -93 -97 -224 -135 -289 -307 -541
-612 -1322 -880 -2251 -93 -321 -186 -677 -239 -915 -75 -333 -192 -1138 -272
-1875 l-27 -250 -136 140 c-495 511 -994 1151 -1381 1770 -971 1552 -1511
3247 -1610 5050 -13 244 -13 836 0 1080 140 2558 1186 4937 3011 6841 2112
2205 5056 3523 8224 3683 237 12 992 12 1226 1z m-384 -5960 c70 -24 160 -80
224 -137 49 -44 88 -123 121 -245 33 -121 33 -347 0 -468 -45 -165 -151 -354
-271 -482 l-58 -63 -8 -100 c-25 -348 -131 -702 -331 -1105 -257 -516 -660
-1076 -1128 -1565 l-86 -90 2 -200 c1 -134 -9 -363 -30 -697 -18 -274 -32
-502 -32 -507 0 -4 -39 7 -88 25 -283 106 -604 107 -931 2 -159 -51 -238 -92
-303 -157 -60 -61 -144 -111 -185 -111 -36 0 -77 25 -107 64 -60 79 -208 170
-327 201 -126 33 -300 4 -409 -70 l-49 -33 -73 19 c-379 100 -780 44 -1077
-152 -68 -44 -88 -63 -108 -104 -110 -216 -286 -358 -499 -402 -72 -15 -86
-14 -190 2 -268 42 -514 -4 -704 -130 -86 -57 -204 -175 -250 -250 -51 -82
-66 -104 -151 -207 -42 -51 -107 -139 -144 -196 -37 -56 -70 -101 -72 -99 -3
4 156 402 262 652 364 863 847 1833 1227 2463 37 62 68 114 68 116 0 2 -46 6
-102 9 -241 14 -464 120 -653 311 -253 255 -431 665 -411 947 7 110 44 228 97
309 48 75 137 171 197 212 39 27 43 28 49 11 49 -137 120 -274 193 -372 73
-98 215 -233 314 -301 90 -60 266 -146 376 -184 358 -120 908 -133 1408 -31
l67 13 -85 -6 c-145 -12 -589 -7 -700 6 -519 64 -897 246 -1121 541 -151 200
-230 485 -200 728 67 550 402 889 995 1008 296 59 678 62 1106 9 267 -33 699
-126 967 -207 l112 -34 37 56 c53 81 185 207 288 275 382 252 990 401 1773
432 l172 7 65 58 c137 121 279 204 410 240 97 26 263 21 353 -11z m3869 -534
c44 -24 94 -80 94 -106 0 -5 12 -12 28 -16 511 -117 897 -417 1114 -864 81
-167 145 -380 164 -551 7 -62 7 -62 -17 -56 -13 3 -45 9 -70 12 l-45 7 -70
139 -69 139 -68 -137 c-38 -76 -70 -139 -71 -140 -1 -1 -293 -43 -304 -43 -4
0 44 -51 105 -112 l112 -113 -26 -143 c-13 -79 -22 -146 -20 -149 3 -2 65 27
139 65 l133 70 125 -69 c69 -37 131 -68 138 -69 8 0 11 -7 8 -17 -2 -10 -8
-38 -11 -63 -34 -230 -162 -551 -266 -664 -64 -70 -90 -80 -192 -73 -219 14
-530 195 -926 539 -24 21 -47 38 -51 38 -3 0 -8 -26 -9 -57 -1 -32 -6 -112
-11 -178 -21 -268 -8 -424 50 -597 30 -90 103 -242 147 -310 14 -21 24 -41 21
-43 -21 -21 -438 -78 -454 -62 -4 3 -11 40 -17 82 l-11 77 107 105 c59 58 106
107 103 110 -2 2 -70 14 -150 26 l-146 22 -68 140 -69 140 -70 -140 -71 -140
-147 -22 c-81 -12 -149 -23 -151 -26 -2 -2 44 -51 103 -109 l107 -106 -10 -58
c-9 -57 -10 -59 -38 -56 -45 6 -231 60 -284 83 -223 97 -372 192 -511 324 -67
65 -92 83 -86 65 44 -137 77 -279 82 -346 5 -74 4 -83 -16 -103 -13 -13 -34
-21 -55 -21 -70 0 -90 16 -175 135 -209 293 -326 527 -389 775 -24 94 -26 123
-26 280 1 163 3 183 32 290 17 64 49 158 71 210 37 83 43 108 52 215 71 832
598 1425 1392 1565 65 12 158 36 205 54 76 29 200 64 282 80 14 2 66 3 116 2
76 -3 99 -7 140 -30z m929 -1 c114 -29 218 -93 268 -165 21 -30 22 -101 2
-140 -24 -46 -68 -65 -155 -64 -94 0 -188 31 -273 88 -100 67 -136 141 -103
215 35 75 130 99 261 66z m1092 -2687 c-20 -227 -133 -429 -329 -584 -77 -62
-94 -97 -60 -124 20 -16 26 -14 154 50 190 97 282 127 446 146 268 30 242 29
242 5 0 -32 -62 -148 -114 -213 -97 -121 -270 -228 -444 -271 -81 -21 -96 -28
-117 -57 -63 -85 -2 -115 172 -86 190 32 346 86 488 170 42 25 81 46 86 46 43
0 -93 -193 -224 -315 -93 -88 -163 -134 -253 -166 -57 -21 -66 -21 -299 -12
-132 6 -258 9 -280 7 -218 -22 -330 -62 -515 -182 -112 -72 -198 -139 -540
-422 -715 -592 -1405 -1136 -2135 -1685 -512 -385 -987 -725 -1013 -725 -6 0
-7 15 -1 38 5 20 9 61 9 91 0 45 -5 59 -30 88 -96 109 -150 327 -150 611 0
122 -4 170 -20 234 -82 321 -261 537 -488 590 -28 7 -51 17 -49 22 2 5 113 39
247 76 1735 476 3020 1045 3593 1592 l98 93 -57 65 c-118 136 -222 315 -272
470 -37 113 -62 312 -43 340 12 18 7 21 178 -95 149 -100 318 -186 447 -227
88 -28 115 -32 211 -32 147 0 187 18 314 143 168 165 374 284 626 362 134 41
129 43 122 -43z m-4714 -241 c72 -188 307 -881 301 -887 -16 -15 -1145 -690
-1155 -690 -5 0 -9 13 -9 28 0 55 -40 252 -75 366 -63 209 -161 402 -287 569
l-59 77 43 19 c113 48 711 313 938 415 140 62 265 114 276 115 12 1 24 -5 27
-12z m424 -1221 c15 4 44 -26 130 -133 60 -76 170 -200 243 -276 73 -76 131
-139 129 -141 -9 -9 -514 -180 -719 -244 -469 -147 -952 -282 -1010 -282 -20
0 -74 16 -119 36 -100 43 -234 78 -377 98 -58 8 -107 16 -109 18 -2 2 103 67
233 145 131 78 525 316 877 527 l640 386 32 -69 c25 -56 35 -69 50 -65z"/>
<path d="M14025 16966 c-198 -83 -353 -182 -470 -301 -44 -44 -90 -100 -103
-123 l-23 -42 23 -9 c63 -23 63 -23 85 22 70 145 275 322 518 449 111 58 101
60 -30 4z"/>
<path d="M14210 16802 c-253 -111 -444 -251 -540 -395 -44 -66 -44 -69 19 -87
25 -7 29 -4 54 44 74 142 226 276 472 418 55 32 95 58 90 57 -6 0 -48 -17 -95
-37z"/>
<path d="M14285 16501 c-195 -83 -342 -178 -457 -294 -73 -75 -126 -153 -112
-166 5 -5 24 -13 42 -19 28 -10 34 -9 39 6 3 9 26 47 50 84 82 126 272 280
476 389 51 27 88 48 82 48 -5 0 -60 -22 -120 -48z"/>
<path d="M12484 16403 c14 -20 24 -38 23 -40 -2 -1 -25 4 -52 12 -63 19 -195
19 -270 0 -198 -51 -368 -202 -409 -363 l-12 -46 -38 65 c-29 50 -36 58 -32
34 9 -59 48 -147 97 -220 113 -168 273 -262 464 -271 l90 -4 -83 23 c-45 13
-84 26 -87 29 -3 3 31 12 76 21 171 35 332 144 405 275 l29 53 11 -38 11 -38
8 45 c20 131 -63 332 -187 451 -61 58 -78 63 -44 12z"/>
<path d="M9687 16053 c-14 -3 10 -24 95 -80 113 -76 232 -165 298 -222 19 -17
37 -31 40 -31 10 0 248 -244 293 -300 56 -70 147 -209 147 -224 0 -28 -411
-160 -620 -200 -229 -43 -575 -47 -753 -8 l-89 20 36 -37 c71 -72 197 -133
350 -168 101 -23 403 -23 551 0 231 37 466 97 743 192 221 76 222 76 222 87 0
5 -33 60 -74 121 -290 439 -648 744 -969 827 -75 19 -237 33 -270 23z"/>
<path d="M17582 15324 l-70 -140 -134 -18 c-73 -10 -141 -20 -152 -23 -15 -4
1 -25 88 -112 79 -79 106 -113 106 -131 -1 -14 -11 -81 -24 -150 -13 -69 -22
-127 -20 -129 1 -2 64 29 138 68 l135 70 135 -70 c75 -39 136 -67 136 -62 0 4
-10 73 -22 152 l-22 143 107 105 c60 58 106 107 104 110 -3 2 -69 14 -148 26
l-144 22 -71 140 -72 139 -70 -140z"/>
</g>
</svg>
